<svg width="24" height="24" viewBox="0 0 24 24" fill="none" xmlns="http://www.w3.org/2000/svg">
<path d="M6.43762 12.6426C6.1635 12.4177 5.80629 12.2956 5.43766 12.301C5.06903 12.3063 4.71625 12.4386 4.45007 12.6713C4.18389 12.904 4.02401 13.22 4.00249 13.5557C3.98098 13.8915 4.09942 14.2223 4.33407 14.4817L7.57705 17.5869C7.71283 17.7169 7.87598 17.8204 8.05672 17.8914C8.23745 17.9624 8.43205 17.9994 8.62883 18.0001C8.82456 18.0011 9.01853 17.9663 9.19921 17.8976C9.37989 17.8289 9.54359 17.7278 9.68061 17.6003L19.5849 8.27128C19.7191 8.14527 19.8249 7.99637 19.8961 7.83307C19.9673 7.66977 20.0026 7.49527 19.9999 7.31954C19.9971 7.14381 19.9565 6.97029 19.8803 6.80888C19.8041 6.64748 19.6938 6.50135 19.5556 6.37884C19.4175 6.25633 19.2543 6.15984 19.0753 6.09487C18.8963 6.02991 18.705 5.99775 18.5124 6.00022C18.3198 6.0027 18.1296 6.03976 17.9527 6.1093C17.7758 6.17883 17.6156 6.27948 17.4813 6.40549L8.64344 14.7483L6.43762 12.6426Z" fill="#82C43C"/>
</svg>
