<svg width="24" height="24" viewBox="0 0 24 24" fill="none" xmlns="http://www.w3.org/2000/svg">
<path d="M12.0004 11.8158C13.3554 11.8158 14.8724 11.6658 15.8404 10.5598C16.6544 9.62976 16.9184 8.19176 16.6464 6.16776C16.2664 3.34276 14.5294 1.65576 12.0004 1.65576C9.47139 1.65576 7.73439 3.34276 7.35439 6.16976C7.08239 8.19176 7.34639 9.62976 8.16039 10.5598C9.12839 11.6668 10.6454 11.8158 12.0004 11.8158ZM8.84039 6.36776C9.00239 5.16776 9.62739 3.15576 12.0004 3.15576C14.3734 3.15576 14.9984 5.16876 15.1604 6.36776C15.3674 7.91776 15.2174 8.99476 14.7104 9.57276C14.2554 10.0928 13.4444 10.3158 12.0004 10.3158C10.5564 10.3158 9.74539 10.0928 9.29039 9.57276C8.78339 8.99476 8.63339 7.91676 8.84039 6.36776ZM20.2804 19.2358C19.4034 15.7098 15.9984 13.2458 12.0004 13.2458C8.00239 13.2458 4.59739 15.7098 3.72039 19.2358C3.54839 19.9278 3.69239 20.6358 4.11539 21.1758C4.52339 21.6958 5.15539 21.9958 5.84839 21.9958H18.1524C18.8454 21.9958 19.4774 21.6958 19.8854 21.1758C20.3094 20.6358 20.4524 19.9288 20.2794 19.2358H20.2804ZM18.7044 20.2518C18.5784 20.4118 18.3884 20.4978 18.1524 20.4978H5.84839C5.61339 20.4978 5.42239 20.4128 5.29639 20.2518C5.15939 20.0778 5.11639 19.8398 5.17639 19.5978C5.88639 16.7428 8.69339 14.7478 12.0004 14.7478C15.3074 14.7478 18.1144 16.7418 18.8244 19.5978C18.8844 19.8398 18.8414 20.0778 18.7044 20.2518Z" fill="black"/>
</svg>
