<svg width="50" height="50" viewBox="0 0 50 50" fill="none" xmlns="http://www.w3.org/2000/svg">
<path fill-rule="evenodd" clip-rule="evenodd" d="M29.2743 23.8535C29.2743 23.8535 23.6742 32.9339 19.0828 32.9339C11.052 32.9339 18.5361 15.6353 24.3933 15.6353C28.4804 15.6353 29.2743 23.8535 29.2743 23.8535Z" fill="#FF6600"/>
<path fill-rule="evenodd" clip-rule="evenodd" d="M35.9296 35.2728C34.3342 36.9704 32.3652 38.2731 30.1787 39.0774C27.9921 39.8818 25.6483 40.1658 23.3329 39.9069C21.0175 39.648 18.7942 38.8533 16.8395 37.5859C14.8847 36.3184 13.2522 34.613 12.0713 32.6049C13.3989 34.4106 15.6507 35.6144 18.8526 35.6144C26.7403 35.6144 31.2178 29.4849 31.2178 29.4849C31.2178 29.4849 31.605 34.3293 35.9198 35.2728H35.9296Z" fill="#FF6600"/>
<path fill-rule="evenodd" clip-rule="evenodd" d="M38.2921 18.0591C39.4726 20.3147 40.059 22.8339 39.9958 25.379C39.9326 27.924 39.2219 30.411 37.9309 32.6053C36.9097 32.0326 36.1548 31.0814 35.8288 29.957L34.1172 24.8295L38.2921 18.0591Z" fill="#FF6600"/>
<path fill-rule="evenodd" clip-rule="evenodd" d="M25.0024 10.013C28.7639 10.0105 32.3885 11.4241 35.1548 13.9725L32.3141 18.5566C31.2858 15.8823 29.1968 13.2047 25.1325 13.2047C16.8088 13.2047 10.6392 22.2916 10.6392 27.9884C10.6374 28.7252 10.7315 29.459 10.9191 30.1715C10.0867 27.9044 9.81404 25.4699 10.1243 23.0749C10.4345 20.6798 11.3185 18.3951 12.7011 16.4148C14.0837 14.4345 15.924 12.8173 18.0656 11.7004C20.2073 10.5836 22.5869 10.0003 25.0024 10V10.013Z" fill="#FF6600"/>
</svg>
