<svg width="24" height="24" viewBox="0 0 24 24" fill="#fao" xmlns="http://www.w3.org/2000/svg">
<path d="M22.5804 7.34986L12.4754 1.89686C12.1784 1.73686 11.8214 1.73686 11.5254 1.89686L1.42545 7.34986C0.939446 7.61386 0.758446 8.21986 1.02045 8.70586C1.20045 9.04086 1.54545 9.23086 1.90045 9.23086C2.06045 9.23086 2.22445 9.19286 2.37545 9.11086L3.10945 8.71486L4.69945 19.9649C4.91545 21.1789 6.00945 22.0269 7.35945 22.0269H16.6414C17.9914 22.0269 19.0854 21.1789 19.3034 19.9389L20.8914 8.71386L21.6284 9.11186C22.1134 9.37486 22.7204 9.19386 22.9824 8.70786C23.2454 8.22186 23.0624 7.61486 22.5784 7.35286L22.5804 7.34986ZM12.0004 15.4349C10.2054 15.4349 8.75045 13.9799 8.75045 12.1849C8.75045 10.3899 10.2054 8.93486 12.0004 8.93486C13.7954 8.93486 15.2504 10.3899 15.2504 12.1849C15.2504 13.9799 13.7954 15.4349 12.0004 15.4349Z" fill="#1C1C1C"/>
</svg>
