<svg width="15" height="15" viewBox="0 0 15 15" fill="none" xmlns="http://www.w3.org/2000/svg">
<path d="M8.77832 1.40127L6.18582 1.39502H6.18457C3.45082 1.39502 1.30957 3.53689 1.30957 6.27127C1.30957 8.83252 3.30082 10.775 5.9752 10.8775V13.27C5.9752 13.3375 6.0027 13.4488 6.0502 13.5219C6.13895 13.6625 6.2902 13.7388 6.4452 13.7388C6.53145 13.7388 6.61832 13.715 6.69645 13.665C6.86145 13.56 10.7421 11.0775 11.7514 10.2238C12.9402 9.21752 13.6514 7.74252 13.6533 6.27877V6.26814C13.6496 3.53877 11.5096 1.40127 8.77832 1.40064V1.40127ZM11.1452 9.50877C10.4364 10.1088 8.10645 11.6369 6.9127 12.4106V10.4188C6.9127 10.16 6.70332 9.95002 6.44395 9.95002H6.19645C3.90895 9.95002 2.2477 8.40252 2.2477 6.27127C2.2477 4.06252 3.9777 2.33252 6.1852 2.33252L8.77707 2.33877H8.77832C10.9858 2.33877 12.7158 4.06752 12.7171 6.27377C12.7152 7.46752 12.1283 8.67627 11.1458 9.50877H11.1452Z" fill="#657786"/>
</svg>
